<svg width="72" height="106" viewBox="0 0 72 106" fill="none" xmlns="http://www.w3.org/2000/svg">
<path fill-rule="evenodd" clip-rule="evenodd" d="M34.4216 21.2725V33.5368L34.4819 52.9301L40.5235 60.9654L43.3026 60.3612C46.0817 58.4078 51.9782 54.8876 53.3315 56.4342V50.151C52.4675 50.0458 50.6465 49.5627 49.5254 49.4303L51.0962 21.2725H48.9212L48.5587 32.7514H36.6569V21.2725H34.4216ZM36.6569 35.7118V48.3386C37.4426 48.3071 43.0308 48.9491 47.2296 49.4303L47.7733 35.7118H36.6569ZM51.5676 52.326L36.1617 50.151L42.022 59.0925L51.5676 52.326Z" fill="white"/>
<path d="M34.4216 21.2725L21.7343 33.5368H5.30136C1.4348 33.5368 -1.76722 40.2429 4.6972 42.6595L24.453 42.3574L34.4216 33.5368M34.4216 21.2725H36.6569M34.4216 21.2725V33.5368M34.4216 33.5368L34.4819 52.9301M53.3315 56.4342V100.96C53.3315 105.008 43.8463 106.519 43.3026 100.96V60.3612M53.3315 56.4342C51.9782 54.8876 46.0817 58.4078 43.3026 60.3612M53.3315 56.4342V50.151M43.3026 60.3612L40.5235 60.9654M34.4819 52.9301L18.8344 64.9528C17.0461 66.7411 17.2032 69.1617 17.5052 70.1485L26.1446 92.6834C29.2258 98.0604 37.5027 93.7709 35.1465 87.8502L28.7425 70.1485L40.5235 60.9654M34.4819 52.9301L40.5235 60.9654M53.3315 50.151V33.9597C53.0899 32.5581 54.7614 33.0938 55.6273 33.5368L62.2126 38.5513V55.7092C61.9709 59.5758 70.9728 59.7571 70.9728 55.7092V35.7118C71.2145 35.0351 69.7847 33.4563 69.0395 32.7514L61.0043 26.5705M53.3315 50.151C52.4675 50.0458 50.6465 49.5627 49.5254 49.4303M47.2296 49.4303C43.0308 48.9491 37.4426 48.3071 36.6569 48.3386V35.7118H47.7733L47.2296 49.4303ZM47.2296 49.4303C48.2835 49.5511 48.5444 49.3144 49.5254 49.4303M49.5254 49.4303L51.0962 21.2725M51.0962 21.2725H54.1169L58.2252 24.4327M51.0962 21.2725H48.9212M48.9212 21.2725L48.5587 32.7514H36.6569V21.2725M48.9212 21.2725H36.6569M58.2252 24.4327C61.0043 11.0019 61.0043 5.02077 61.0043 2L64.3876 3.32914C64.3876 9.12901 64.0251 13.2373 61.0043 26.5705M58.2252 24.4327L61.0043 26.5705M36.1617 50.151L51.5676 52.326L42.022 59.0925L36.1617 50.151ZM44.4505 17.3455C52.0024 17.3455 52.7878 5.08118 44.4505 4.65828C36.2944 4.65828 35.2069 17.3455 44.4505 17.3455Z" stroke="white" stroke-width="1.93329"/>
</svg>
