<svg width="79" height="79" viewBox="0 0 79 79" fill="none" xmlns="http://www.w3.org/2000/svg">
<path fill-rule="evenodd" clip-rule="evenodd" d="M39.3727 78.9416C44.5431 78.9416 49.663 77.9232 54.4399 75.9445C59.2168 73.9659 63.5572 71.0657 67.2133 67.4096C70.8694 63.7535 73.7696 59.4131 75.7483 54.6362C77.7269 49.8593 78.7453 44.7394 78.7453 39.5689C78.7453 34.3985 77.7269 29.2786 75.7483 24.5017C73.7696 19.7248 70.8694 15.3844 67.2133 11.7283C63.5572 8.07218 59.2168 5.17201 54.4399 3.19335C49.663 1.21469 44.5431 0.196289 39.3727 0.196289C28.9304 0.196289 18.9158 4.34447 11.532 11.7283C4.14818 19.1121 0 29.1267 0 39.5689C0 50.0112 4.14818 60.0258 11.532 67.4096C18.9158 74.7934 28.9304 78.9416 39.3727 78.9416ZM38.3577 55.493L60.2314 29.2446L53.5118 23.6449L34.7004 46.2142L24.9666 36.476L18.7808 42.6619L31.905 55.7861L35.291 59.1722L38.3577 55.493Z" fill="#66378F"/>
</svg>
