<svg width="40" height="40" viewBox="0 0 40 40" fill="none" xmlns="http://www.w3.org/2000/svg">
<path d="M5.99969 20.3312C7.92526 18.8871 10.3072 18.1859 12.7081 18.3566C15.109 18.5272 17.3678 19.5581 19.0697 21.2601C20.7717 22.9621 21.8027 25.2209 21.9733 27.6218C22.1439 30.0227 21.4428 32.4046 19.9986 34.3302M5.99969 20.3312C4.75702 21.2619 3.74848 22.4695 3.05417 23.8581C2.35986 25.2467 1.99891 26.7781 2 28.3306C1.99936 29.3361 2.15038 30.3359 2.44797 31.2964C2.99193 33.0563 2.59996 35.0161 2.24998 36.864C2.21895 37.0219 2.22917 37.1852 2.27967 37.338C2.33017 37.4909 2.41923 37.6281 2.53825 37.7365C2.65728 37.8448 2.80224 37.9207 2.95913 37.9567C3.11602 37.9926 3.27954 37.9875 3.43389 37.9419C5.12976 37.4779 6.81563 37.0819 8.54749 37.7179C9.65295 38.124 10.8216 38.3311 11.9992 38.3298C13.5518 38.3312 15.0833 37.9704 16.472 37.2761C17.8606 36.5818 19.0682 35.5731 19.9986 34.3302M5.99969 20.3312C5.99969 10.962 11.7492 2.33264 21.9984 2.33264C24.5642 2.33219 27.0923 2.94882 29.3697 4.1305C31.6471 5.31218 33.6069 7.02425 35.0838 9.12228C36.5606 11.2203 37.5112 13.6428 37.8554 16.1853C38.1996 18.7278 37.9272 21.3158 37.0613 23.731C36.1094 26.3828 37.1353 29.9345 37.7352 32.8663C37.7702 33.0224 37.763 33.185 37.7144 33.3374C37.6658 33.4898 37.5776 33.6265 37.4587 33.7336C37.3399 33.8406 37.1947 33.9142 37.038 33.9466C36.8814 33.979 36.7189 33.9692 36.5673 33.9182C33.9435 33.0983 30.8638 31.9463 28.398 32.9863C25.7302 34.1102 22.9264 34.3302 19.9986 34.3302" stroke="#68368C" stroke-width="2.99977" stroke-linecap="round" stroke-linejoin="round"/>
</svg>
