<svg width="83" height="76" viewBox="0 0 83 76" fill="none" xmlns="http://www.w3.org/2000/svg">
<path d="M60.7938 28.0839L61.5412 27.3739L61.5294 27.3614L61.5172 27.3494L60.7938 28.0839ZM55.8454 12.0015L56.5843 11.2825L56.5825 11.2807L55.8454 12.0015ZM81 31.7953L81.729 32.5242L82.2695 31.9837L81.9093 31.3095L81 31.7953ZM52.2208 3.13547L51.4724 3.84449L51.4827 3.85538L51.4934 3.86596L52.2208 3.13547ZM72.9588 16.7437L73.8681 16.2579L73.7933 16.1179L73.6799 16.0069L72.9588 16.7437ZM63.268 7.25914L63.9891 6.52237L63.9787 6.51214L63.968 6.50221L63.268 7.25914ZM41.8247 41.1561L42.5422 40.4158L41.8247 41.1561ZM9.77378 64.0884C10.1862 64.4809 10.8387 64.4648 11.2313 64.0524C11.6238 63.64 11.6077 62.9874 11.1953 62.5949L9.77378 64.0884ZM12.6604 61.176C13.0728 61.5685 13.7253 61.5524 14.1179 61.14C14.5104 60.7276 14.4943 60.075 14.0819 59.6825L12.6604 61.176ZM15.9593 57.8475C16.3718 58.24 17.0243 58.2239 17.4169 57.8115C17.8094 57.3991 17.7933 56.7465 17.3809 56.354L15.9593 57.8475ZM18.8459 54.9351C19.2584 55.3276 19.9109 55.3115 20.3034 54.8991C20.696 54.4867 20.6799 53.8341 20.2675 53.4416L18.8459 54.9351ZM21.9387 51.8146C22.3511 52.2072 23.0037 52.1911 23.3962 51.7787C23.7888 51.3662 23.7727 50.7137 23.3602 50.3212L21.9387 51.8146ZM25.0315 48.6942C25.4439 49.0867 26.0965 49.0706 26.489 48.6582C26.8816 48.2458 26.8654 47.5933 26.453 47.2007L25.0315 48.6942ZM28.1243 45.5738C28.5367 45.9663 29.1893 45.9502 29.5818 45.5378C29.9743 45.1254 29.9582 44.4728 29.5458 44.0803L28.1243 45.5738ZM31.2171 42.4533C31.6295 42.8459 32.282 42.8298 32.6746 42.4173C33.0671 42.0049 33.051 41.3524 32.6386 40.9598L31.2171 42.4533ZM34.0358 39.6094C34.4482 40.002 35.1007 39.9859 35.4933 39.5734C35.8858 39.161 35.8697 38.5085 35.4573 38.1159L34.0358 39.6094ZM8.51221 73.9781L7.78866 73.2437L8.51221 73.9781ZM7.92712 73.9718L8.66629 73.2532L7.92712 73.9718ZM47.252 2.47906L46.8235 1.54141L47.252 2.47906ZM47.1489 3.10734L47.886 2.3866L47.1489 3.10734ZM78.028 34.1881L78.7519 33.4541L78.028 34.1881ZM78.6092 34.1861L79.3381 34.9151L78.6092 34.1861ZM66.5187 43.1531L66.4109 44.1783L66.5187 43.1531ZM66.2572 43.0192L67.0263 42.3326L66.2572 43.0192ZM46.8962 14.9712L46.1672 14.2423L46.8962 14.9712ZM47.4771 14.969L46.7537 15.7035L47.4771 14.969ZM72.2749 40.1693L73.0224 39.4593L72.2749 40.1693ZM72.2739 40.7404L73.021 41.4508L72.2739 40.7404ZM44.7921 43.478L44.0774 42.735L44.7921 43.478ZM44.2192 43.4769L43.5017 44.2172L44.2192 43.4769ZM1.28218 67.137L0.543006 67.8556L1.28218 67.137ZM1.28496 66.5593L2.01717 67.285L1.28496 66.5593ZM31.3993 30.4682L32.1283 31.1971L31.3993 30.4682ZM31.4039 31.0559L30.6864 31.7961L31.4039 31.0559ZM58.7223 31.5073L61.5085 28.8269L60.0791 27.341L57.2929 30.0214L58.7223 31.5073ZM46.1672 14.2423L44.0181 16.3914L45.476 17.8494L47.6252 15.7002L46.1672 14.2423ZM44.0181 16.3914L30.6703 29.7392L32.1283 31.1971L45.476 17.8494L44.0181 16.3914ZM58.7469 30.0458L45.4863 16.4019L44.0077 17.8389L57.2683 31.4829L58.7469 30.0458ZM60.0464 28.794L71.5275 40.8794L73.0224 39.4593L61.5412 27.3739L60.0464 28.794ZM71.5267 40.0301C70.7293 40.8688 70.208 41.4143 69.5407 41.7633C68.921 42.0874 68.0829 42.2809 66.6265 42.1278L66.4109 44.1783C68.1458 44.3608 69.4192 44.1537 70.4962 43.5904C71.5256 43.0521 72.2863 42.2235 73.021 41.4508L71.5267 40.0301ZM45.5068 44.2209L52.9356 37.0743L51.5061 35.5884L44.0774 42.735L45.5068 44.2209ZM52.9356 37.0743L58.7223 31.5073L57.2929 30.0214L51.5061 35.5884L52.9356 37.0743ZM67.0263 42.3326C65.3658 40.4725 63.2502 38.2931 60.7519 36.7942C58.2321 35.2824 55.2549 34.4249 51.9467 35.3375L52.495 37.3252C55.1035 36.6055 57.4962 37.2454 59.6911 38.5622C61.9077 39.8921 63.8518 41.8727 65.4882 43.7057L67.0263 42.3326ZM58.4193 25.7775L63.9864 20.3698L62.5497 18.8908L56.9827 24.2985L58.4193 25.7775ZM64.0069 18.9114L56.5843 11.2825L55.1065 12.7204L62.5291 20.3492L64.0069 18.9114ZM61.5172 27.3494L50.84 16.8339L49.3932 18.303L60.0704 28.8184L61.5172 27.3494ZM50.84 16.8339L48.2005 14.2345L46.7537 15.7035L49.3932 18.303L50.84 16.8339ZM55.1269 11.2621L49.3981 16.8291L50.835 18.3078L56.5638 12.7408L55.1269 11.2621ZM62.5441 20.3643L77.3041 34.9221L78.7519 33.4541L63.992 18.8963L62.5441 20.3643ZM79.3381 34.9151L81.729 32.5242L80.271 31.0663L77.8802 33.4571L79.3381 34.9151ZM52.9692 2.42646C52.0564 1.46287 49.7129 0.220951 46.8235 1.54141L47.6806 3.41671C49.6144 2.53295 51.0406 3.3887 51.4724 3.84449L52.9692 2.42646ZM46.4118 3.82808L55.1082 12.7222L56.5825 11.2807L47.886 2.3866L46.4118 3.82808ZM81.9093 31.3095L73.8681 16.2579L72.0495 17.2295L80.0907 32.2811L81.9093 31.3095ZM73.6799 16.0069L63.9891 6.52237L62.5469 7.99591L72.2377 17.4804L73.6799 16.0069ZM81.7275 31.0648L57.3976 6.83579L55.9426 8.29677L80.2725 32.5258L81.7275 31.0648ZM57.3976 6.83579L52.9483 2.40498L51.4934 3.86596L55.9426 8.29677L57.3976 6.83579ZM63.968 6.50221C62.7448 5.37117 59.6352 4.1929 56.0727 6.72611L57.2675 8.40646C59.973 6.48264 62.0044 7.49478 62.5681 8.01607L63.968 6.50221ZM41.1072 41.8964L43.5017 44.2172L44.9367 42.7366L42.5422 40.4158L41.1072 41.8964ZM41.1012 40.4217L7.78866 73.2437L9.23576 74.7125L42.5483 41.8905L41.1012 40.4217ZM8.66629 73.2532L2.02135 66.4184L0.543006 67.8556L7.18795 74.6904L8.66629 73.2532ZM30.6864 31.7961L33.2722 34.3024L34.7072 32.8218L32.1214 30.3156L30.6864 31.7961ZM33.2722 34.3024L41.1072 41.8964L42.5422 40.4158L34.7072 32.8218L33.2722 34.3024ZM2.01717 67.285L8.12397 61.1236L6.65954 59.6721L0.552746 65.8335L2.01717 67.285ZM8.12397 61.1236L34.7219 34.2878L33.2575 32.8364L6.65954 59.6721L8.12397 61.1236ZM6.68099 61.1446L9.77378 64.0884L11.1953 62.5949L8.10251 59.6511L6.68099 61.1446ZM9.56759 58.2322L12.6604 61.176L14.0819 59.6825L10.9891 56.7387L9.56759 58.2322ZM12.8666 54.9037L15.9593 57.8475L17.3809 56.354L14.2881 53.4103L12.8666 54.9037ZM15.7532 51.9913L18.8459 54.9351L20.2675 53.4416L17.1747 50.4978L15.7532 51.9913ZM18.8459 48.8709L21.9387 51.8146L23.3602 50.3212L20.2675 47.3774L18.8459 48.8709ZM21.9387 45.7505L25.0315 48.6942L26.453 47.2007L23.3602 44.257L21.9387 45.7505ZM25.0315 42.63L28.1243 45.5738L29.5458 44.0803L26.453 41.1365L25.0315 42.63ZM28.1243 39.5096L31.2171 42.4533L32.6386 40.9598L29.5458 38.0161L28.1243 39.5096ZM30.943 36.6657L34.0358 39.6094L35.4573 38.1159L32.3645 35.1722L30.943 36.6657ZM7.78866 73.2437C8.03315 73.0028 8.42702 73.0071 8.66629 73.2532L7.18795 74.6904C7.74622 75.2647 8.66527 75.2745 9.23576 74.7125L7.78866 73.2437ZM46.8235 1.54141C45.8669 1.97857 45.7706 3.17229 46.4118 3.82808L47.886 2.3866C48.1481 2.65466 48.1439 3.20494 47.6806 3.41671L46.8235 1.54141ZM77.3041 34.9221C77.8688 35.4791 78.7773 35.476 79.3381 34.9151L77.8802 33.4571C78.1206 33.2167 78.5099 33.2154 78.7519 33.4541L77.3041 34.9221ZM66.6265 42.1278C66.7806 42.144 66.9228 42.2167 67.0263 42.3326L65.4882 43.7057C65.7262 43.9724 66.0557 44.141 66.4109 44.1783L66.6265 42.1278ZM47.6252 15.7002C47.3849 15.9405 46.9958 15.942 46.7537 15.7035L48.2005 14.2345C47.6357 13.6782 46.7278 13.6817 46.1672 14.2423L47.6252 15.7002ZM71.5275 40.8794C71.2982 40.638 71.3034 40.2649 71.5267 40.0301L73.021 41.4508C73.5482 40.8963 73.5554 40.0203 73.0224 39.4593L71.5275 40.8794ZM44.0774 42.735C44.3175 42.504 44.6975 42.5047 44.9367 42.7366L43.5017 44.2172C44.06 44.7583 44.9466 44.7599 45.5068 44.2209L44.0774 42.735ZM2.02135 66.4184C2.25637 66.6601 2.25451 67.0455 2.01717 67.285L0.552746 65.8335C-0.00104535 66.3923 -0.00537336 67.2916 0.543006 67.8556L2.02135 66.4184ZM30.6703 29.7392C30.1004 30.3091 30.1077 31.2352 30.6864 31.7961L32.1214 30.3156C32.3694 30.556 32.3725 30.9529 32.1283 31.1971L30.6703 29.7392Z" fill="white"/>
</svg>
