<svg width="74" height="74" viewBox="0 0 74 74" fill="none" xmlns="http://www.w3.org/2000/svg">
<path d="M53.4049 1V32.3657C55.1474 34.3986 59.9134 37.5933 62.1176 37.5933M62.1176 37.5933C63.8601 37.5933 67.3452 36.722 71.7015 32.3657C72.1944 31.8728 71.9919 11.4552 71.7015 1M62.1176 37.5933V64.6026C61.5367 67.2164 59.5038 71.5728 56.0187 71.5728L27.2668 70.7015C24.653 69.8302 19.9481 65.8224 22.0392 56.7612M22.0392 56.7612H5.48508C3.56032 56.7612 2 55.2009 2 53.2761V6.22761C2 4.30286 3.56033 2.74254 5.48508 2.74254H39.4646C41.3893 2.74254 42.9496 4.30286 42.9496 6.22761V53.2761C42.9496 55.2009 41.3893 56.7612 39.4646 56.7612H22.0392ZM15.9403 48.0485L30.7519 34.1082M15.9403 48.0485C13.3265 46.306 10.5384 38.1161 16.8116 33.2369C23.0847 28.3578 29.0093 31.7848 30.7519 34.1082M15.9403 48.0485C18.5541 49.7911 25.0265 51.1601 29.0093 47.1772C33.8884 42.2981 33.3657 37.5933 30.7519 34.1082M10.7127 9.71269V22.7817H35.9795V9.71269H10.7127Z" stroke="white" stroke-width="3.48508"/>
</svg>
