<svg width="36" height="33" viewBox="0 0 36 33" fill="none" xmlns="http://www.w3.org/2000/svg">
<path d="M19.3171 26.6713C19.3171 26.0742 19.3873 25.4947 19.4751 24.9152H3.5122V7.35422L17.561 16.1347L31.6098 7.35422V16.2928C32.8741 16.5035 34.0507 16.9425 35.122 17.5572V3.84203C35.122 1.91032 33.5415 0.329834 31.6098 0.329834H3.5122C1.58049 0.329834 0 1.91032 0 3.84203V24.9152C0 26.8469 1.58049 28.4274 3.5122 28.4274H19.4751C19.3873 27.8479 19.3171 27.2684 19.3171 26.6713ZM31.6098 3.84203L17.561 12.6225L3.5122 3.84203H31.6098ZM27.6585 32.2206L22.8293 26.9523L24.8663 24.9152L27.6585 27.7074L33.9629 21.403L36 23.8791L27.6585 32.2206Z" fill="#68368C"/>
</svg>
