<svg width="21" height="21" viewBox="0 0 21 21" fill="none" xmlns="http://www.w3.org/2000/svg">
<path d="M17.7571 -0.000137329H3.14777C1.46793 -0.000137329 0.0935059 1.37429 0.0935059 3.05414V17.665C0.0935059 19.3449 1.46793 20.7193 3.14777 20.7193H17.7586C19.4385 20.7193 20.8129 19.3449 20.8129 17.665V3.05414C20.8114 1.37429 19.4385 -0.000137329 17.7571 -0.000137329ZM17.5609 11.0586H15.1022V19.9542H11.4233V11.0586H9.58311V7.99213H11.4233V6.15193C11.4233 3.65048 12.4618 2.16229 15.4168 2.16229H17.8732V5.22801H16.3369C15.1885 5.22801 15.1121 5.6579 15.1121 6.45736L15.1022 7.99213H17.8854L17.5609 11.0586Z" fill="white"/>
</svg>
