<svg width="72" height="72" viewBox="0 0 72 72" fill="none" xmlns="http://www.w3.org/2000/svg">
<path fill-rule="evenodd" clip-rule="evenodd" d="M38.478 39.7447C39.2751 40.6415 40.1719 41.8373 38.8766 43.4316L35.987 46.3554L25.7237 35.7781C27.0552 34.4492 27.953 33.5459 28.2147 33.2679C29.4901 31.9127 31.0711 32.5704 31.7022 33.0686L32.208 33.5669L37.9724 39.2465L38.478 39.7447ZM15.0681 46.3554L25.7237 56.7404L13.6667 68.9404C11.7736 70.8336 9.18286 71.7304 6.39283 69.5382L1.51015 64.0578C0.713001 63.3404 0.713087 60.548 2.50659 58.7767C5.82138 55.503 10.5574 50.8217 15.0681 46.3554ZM7.6882 60.7697L13.6667 54.8907C15.9586 52.4993 19.0476 55.9433 17.254 57.9797C15.0265 60.5087 14.2744 61.2601 12.0336 63.4992L11.4747 64.0578C9.58143 66.3497 5.29675 63.9931 7.6882 60.7697Z" fill="white"/>
<path d="M37.9724 39.2465L38.478 39.7447C39.2751 40.6415 40.1719 41.8373 38.8766 43.4316L35.987 46.3554M37.9724 39.2465L54.4211 23.2039C55.0986 22.478 56.2696 22.5982 57.4548 22.7198C58.7101 22.8486 59.9812 22.9791 60.6987 22.1078L69.2681 13.5384C74.7485 8.15772 66.1791 -3.60019 58.1079 2.9762L49.5386 11.446C48.3919 13.0972 48.5542 14.115 48.7038 15.0533C48.8793 16.1536 49.0373 17.1446 47.0475 18.9193L32.208 33.5669M37.9724 39.2465L32.208 33.5669M32.208 33.5669L31.7022 33.0686C31.0711 32.5704 29.4901 31.9127 28.2147 33.2679C27.953 33.5459 27.0552 34.4492 25.7237 35.7781M25.7237 35.7781L35.987 46.3554M25.7237 35.7781C23.2413 38.2559 19.2516 42.2131 15.0681 46.3554M35.987 46.3554L25.7237 56.7404M25.7237 56.7404L13.6667 68.9404C11.7736 70.8336 9.18286 71.7304 6.39283 69.5382L1.51015 64.0578C0.713001 63.3404 0.713087 60.548 2.50659 58.7767C5.82138 55.503 10.5574 50.8217 15.0681 46.3554M25.7237 56.7404L15.0681 46.3554M11.4747 64.0578C9.58143 66.3497 5.29675 63.9931 7.6882 60.7697L13.6667 54.8907C15.9586 52.4993 19.0476 55.9433 17.254 57.9797C15.0265 60.5087 14.2744 61.2601 12.0336 63.4992M11.4747 64.0578C11.6712 63.8613 11.857 63.6756 12.0336 63.4992M11.4747 64.0578L12.0336 63.4992M56.2147 12.1435V18.0225M22.8341 48.0153H28.2147M25.0262 43.2324H26.4211M60.3998 11.7449C57.1968 9.05456 61.6617 3.37952 65.1827 7.16133C67.873 10.051 63.6027 14.4353 60.3998 11.7449Z" stroke="white" stroke-width="1.99288" stroke-linecap="round"/>
</svg>
