<svg width="72" height="72" viewBox="0 0 72 72" fill="none" xmlns="http://www.w3.org/2000/svg">
<path d="M48.0873 56.6134C41.1114 56.032 41.3051 65.7208 47.1184 65.7208C53.9005 65.7208 53.3192 57.0494 48.0873 56.6134Z" fill="white"/>
<path fill-rule="evenodd" clip-rule="evenodd" d="M13.9829 31.0351L10.495 48.281L40.5763 54.0943C41.9143 52.7161 43.7737 51.7892 46.1495 51.6558L51.3814 28.7098L41.6927 26.772L39.5612 34.3293L33.5542 33.2635L27.5471 32.1977L29.8724 24.408L24.253 23.2841V31.0351H13.9829Z" fill="white"/>
<path d="M1 7.78212L7.78212 1M1 7.78212V31.0351H13.9829M1 7.78212H7.78212V1M7.78212 1H24.253V23.2841M9.52609 18.8273L11.2701 20.5713L18.6335 13.014M9.52609 13.5954H5.84437V25.9969H17.2771V21.3463M13.9829 31.0351H24.253V23.2841M13.9829 31.0351L10.495 48.281M10.495 48.281L40.5763 54.0943M10.495 48.281C6.81324 47.6997 5.26304 55.0632 9.52609 55.4507L38.011 60.8764M24.253 23.2841L29.8724 24.408M51.3814 28.7098L55.5067 10.8825M51.3814 28.7098L46.1495 51.6558M51.3814 28.7098L41.6927 26.772M55.5067 10.8825L56.8071 5.26304L69.0149 7.78212C71.7278 8.36344 72.1153 14.1767 67.271 13.5954L60.1013 12.0452M55.5067 10.8825L60.1013 12.0452M60.1013 12.0452L57.613 24.6405M50.9939 52.3503L53.2818 43.6304M50.9939 52.3503C35.9399 47.6016 33.8574 68.1057 45.3744 70.3714M50.9939 52.3503C60.8224 55.4507 57.1947 72.6967 45.3744 70.3714M50.9939 52.3503C49.1931 51.7823 47.578 51.5756 46.1495 51.6558M50.9939 52.3503C52.9623 52.9713 54.391 54.1596 55.3223 55.6445M57.613 24.6405L61.6515 31.0351L60.8224 34.3293M57.613 24.6405L55.6463 33.2635M55.3223 55.6445L58.189 44.7931M55.3223 55.6445C59.0407 61.5737 54.8273 72.2309 45.3744 70.3714M46.1495 51.6558C43.7737 51.7892 41.9143 52.7161 40.5763 54.0943M40.5763 54.0943C38.8656 55.8562 38.0071 58.3554 38.011 60.8764M38.011 60.8764C38.0175 65.1094 40.4557 69.4037 45.3744 70.3714M29.8724 24.408L27.5471 32.1977L33.5542 33.2635M29.8724 24.408L35.7826 25.59M41.6927 26.772L39.5612 34.3293L33.5542 33.2635M41.6927 26.772L35.7826 25.59M35.7826 25.59L33.5542 33.2635M53.2818 43.6304L58.189 44.7931M53.2818 43.6304L55.6463 33.2635M58.189 44.7931L60.8224 34.3293M60.8224 34.3293L55.6463 33.2635M48.0873 56.6134C41.1114 56.032 41.3051 65.7208 47.1184 65.7208C53.9005 65.7208 53.3192 57.0494 48.0873 56.6134Z" stroke="white"/>
</svg>
