<svg width="21" height="21" viewBox="0 0 21 21" fill="none" xmlns="http://www.w3.org/2000/svg">
<path d="M11.6117 -0.000137329C12.7771 0.00297043 13.3686 0.00918594 13.8793 0.0236888L14.0803 0.0309402C14.3123 0.0392275 14.5413 0.0495867 14.8179 0.0620177C15.9201 0.113814 16.6721 0.287848 17.332 0.54372C18.0157 0.806843 18.5917 1.1632 19.1677 1.73813C19.6944 2.25598 20.102 2.8824 20.3621 3.57378C20.618 4.23366 20.792 4.98574 20.8438 6.08899C20.8562 6.36454 20.8666 6.59348 20.8749 6.82656L20.8811 7.02753C20.8966 7.5372 20.9028 8.12871 20.9049 9.29412L20.9059 10.0669V11.424C20.9085 12.1796 20.9005 12.9352 20.8821 13.6906L20.8759 13.8915C20.8676 14.1246 20.8572 14.3535 20.8448 14.6291C20.793 15.7324 20.6169 16.4834 20.3621 17.1443C20.1028 17.8361 19.6951 18.4626 19.1677 18.98C18.6497 19.5065 18.0233 19.9141 17.332 20.1744C16.6721 20.4302 15.9201 20.6043 14.8179 20.6561C14.572 20.6676 14.3262 20.678 14.0803 20.6871L13.8793 20.6934C13.3686 20.7079 12.7771 20.7151 11.6117 20.7172L10.8389 20.7182H9.48289C8.72694 20.7208 7.97099 20.7129 7.21527 20.6944L7.0143 20.6882C6.76838 20.6789 6.52252 20.6682 6.27672 20.6561C5.17451 20.6043 4.42243 20.4302 3.76152 20.1744C3.07022 19.9147 2.44406 19.5071 1.92691 18.98C1.39968 18.4623 0.991713 17.8358 0.731466 17.1443C0.475594 16.4844 0.30156 15.7324 0.249764 14.6291C0.238223 14.3833 0.227864 14.1374 0.218687 13.8915L0.213507 13.6906C0.194418 12.9352 0.185784 12.1796 0.187609 11.424V9.29412C0.184718 8.53852 0.192316 7.78292 0.2104 7.02753L0.217651 6.82656C0.225938 6.59348 0.236298 6.36454 0.248729 6.08899C0.300524 4.98574 0.474558 4.2347 0.730429 3.57378C0.990562 2.88169 1.39934 2.25508 1.92795 1.73813C2.44497 1.21134 3.07071 0.803722 3.76152 0.54372C4.42243 0.287848 5.17347 0.113814 6.27672 0.0620177C6.55228 0.0495867 6.78225 0.0392275 7.0143 0.0309402L7.21527 0.0247246C7.97065 0.00631924 8.72625 -0.00162356 9.48185 0.000898514L11.6117 -0.000137329ZM10.5468 5.17945C9.17306 5.17945 7.85561 5.72516 6.88425 6.69652C5.91289 7.66788 5.36719 8.98533 5.36719 10.359C5.36719 11.7328 5.91289 13.0502 6.88425 14.0216C7.85561 14.9929 9.17306 15.5386 10.5468 15.5386C11.9205 15.5386 13.2379 14.9929 14.2093 14.0216C15.1806 13.0502 15.7264 11.7328 15.7264 10.359C15.7264 8.98533 15.1806 7.66788 14.2093 6.69652C13.2379 5.72516 11.9205 5.17945 10.5468 5.17945ZM10.5468 7.25129C10.9549 7.25122 11.359 7.33154 11.7361 7.48766C12.1132 7.64377 12.4558 7.87263 12.7444 8.16116C13.0331 8.4497 13.262 8.79226 13.4183 9.16928C13.5745 9.5463 13.655 9.95041 13.655 10.3585C13.6551 10.7666 13.5748 11.1708 13.4187 11.5479C13.2626 11.9249 13.0337 12.2676 12.7452 12.5562C12.4566 12.8448 12.1141 13.0738 11.7371 13.23C11.36 13.3863 10.9559 13.4667 10.5478 13.4668C9.72358 13.4668 8.93311 13.1394 8.3503 12.5566C7.76748 11.9737 7.44006 11.1833 7.44006 10.359C7.44006 9.53482 7.76748 8.74435 8.3503 8.16153C8.93311 7.57871 9.72358 7.25129 10.5478 7.25129M15.9864 3.62558C15.6429 3.62558 15.3136 3.762 15.0707 4.00484C14.8279 4.24768 14.6915 4.57705 14.6915 4.92047C14.6915 5.2639 14.8279 5.59326 15.0707 5.8361C15.3136 6.07895 15.6429 6.21537 15.9864 6.21537C16.3298 6.21537 16.6592 6.07895 16.902 5.8361C17.1448 5.59326 17.2813 5.2639 17.2813 4.92047C17.2813 4.57705 17.1448 4.24768 16.902 4.00484C16.6592 3.762 16.3298 3.62558 15.9864 3.62558Z" fill="white"/>
</svg>
