<svg width="72" height="73" viewBox="0 0 72 73" fill="none" xmlns="http://www.w3.org/2000/svg">
<path fill-rule="evenodd" clip-rule="evenodd" d="M37.984 59.6753L42.3327 49.2863L5.56664 48.8661C5.46712 48.865 5.38852 48.9542 5.39734 49.0533C7.29567 70.409 31.1626 71.5497 37.984 59.6753ZM46.5148 51.4824H59.6067L66.3637 67.1081H39.8422L46.5148 51.4824Z" fill="white"/>
<path d="M14.5034 1.7334H16.9528M32.832 1.7334H30.5512M16.9528 1.7334V27.6637C9.85799 29.5219 -0.396162 39.3872 1.15796 51.1445C1.91816 62.716 16.2769 78.1728 35.2006 68.7974M16.9528 1.7334H30.5512M35.2006 68.7974C35.7034 70.6293 37.2655 71.5847 38.5753 71.5847M35.2006 68.7974C34.8603 67.5577 35.005 65.9166 36.0414 63.8985M30.5512 1.7334V27.6637C36.2947 29.184 43.9223 36.0256 45.1329 42.7826M45.1329 42.7826L46.5148 39.573M45.1329 42.7826L42.3327 49.2863M43.6431 15.4165H46.5148M62.4784 15.4165H59.9445M59.9445 15.4165L59.6067 39.573L70.6714 65.6722C71.9383 69.2197 69.4044 71.9225 65.4346 71.9225L38.5753 71.5847M59.9445 15.4165H46.5148M38.5753 71.5847C36.3792 71.5847 33.4737 68.8987 36.0414 63.8985M36.0414 63.8985L37.984 59.6753M46.5148 39.573V15.4165M46.5148 39.573L42.3327 49.2863M46.5148 51.4824C51.6275 51.4824 54.494 51.4824 59.6067 51.4824M46.5148 51.4824C43.909 57.5846 42.448 61.0059 39.8422 67.1081M46.5148 51.4824H59.6067M46.5148 51.4824L39.8422 67.1081M59.6067 51.4824C62.2455 57.5846 63.7249 61.0059 66.3637 67.1081M59.6067 51.4824L66.3637 67.1081M66.3637 67.1081C56.0064 67.1081 50.1995 67.1081 39.8422 67.1081M66.3637 67.1081H39.8422M55.4679 19.9775H51.0738C50.9813 19.9775 50.906 20.0519 50.9049 20.1444L50.6535 40.9244L49.1332 44.7253M26.1591 6.29442H21.6826C21.5893 6.29442 21.5136 6.37005 21.5136 6.46335V30.8309C21.5136 30.906 21.4667 30.9714 21.3944 30.992C18.7002 31.7569 12.2444 33.094 8.08396 40.3332M42.3327 49.2863L5.56664 48.8661C5.46712 48.865 5.38852 48.9542 5.39734 49.0533C7.29567 70.409 31.1626 71.5497 37.984 59.6753M42.3327 49.2863L37.984 59.6753" stroke="white" stroke-width="1.8582" stroke-linecap="round"/>
</svg>
