<svg width="21" height="21" viewBox="0 0 21 21" fill="none" xmlns="http://www.w3.org/2000/svg">
<path d="M18.4172 0C19.0278 0 19.6134 0.242548 20.0451 0.674286C20.4768 1.10602 20.7194 1.69159 20.7194 2.30216V18.4173C20.7194 19.0278 20.4768 19.6134 20.0451 20.0451C19.6134 20.4769 19.0278 20.7194 18.4172 20.7194H2.30215C1.69158 20.7194 1.10602 20.4769 0.674285 20.0451C0.242548 19.6134 0 19.0278 0 18.4173V2.30216C0 1.69159 0.242548 1.10602 0.674285 0.674286C1.10602 0.242548 1.69158 0 2.30215 0H18.4172ZM17.8417 17.8417V11.741C17.8417 10.7458 17.4463 9.79131 16.7426 9.08758C16.0389 8.38384 15.0844 7.98849 14.0892 7.98849C13.1108 7.98849 11.9712 8.58705 11.4187 9.48489V8.20719H8.20718V17.8417H11.4187V12.1669C11.4187 11.2806 12.1324 10.5554 13.0187 10.5554C13.4461 10.5554 13.856 10.7252 14.1582 11.0274C14.4604 11.3296 14.6302 11.7395 14.6302 12.1669V17.8417H17.8417ZM4.46618 6.4C4.97906 6.4 5.47093 6.19626 5.83359 5.8336C6.19625 5.47094 6.39999 4.97907 6.39999 4.46619C6.39999 3.39568 5.53668 2.52086 4.46618 2.52086C3.95025 2.52086 3.45545 2.72582 3.09063 3.09064C2.72581 3.45545 2.52086 3.95026 2.52086 4.46619C2.52086 5.53669 3.39568 6.4 4.46618 6.4ZM6.06618 17.8417V8.20719H2.87769V17.8417H6.06618Z" fill="white"/>
</svg>
