<svg width="36" height="41" viewBox="0 0 36 41" fill="none" xmlns="http://www.w3.org/2000/svg">
<path fill-rule="evenodd" clip-rule="evenodd" d="M18 0C22.7739 0 27.3523 1.89642 30.7279 5.27208C34.1036 8.64773 36 13.2261 36 18C36 24.148 32.648 29.18 29.116 32.79C27.351 34.5738 25.4256 36.1913 23.364 37.622L22.512 38.202L22.112 38.468L21.358 38.948L20.686 39.358L19.854 39.842C19.289 40.1636 18.6501 40.3327 18 40.3327C17.3499 40.3327 16.711 40.1636 16.146 39.842L15.314 39.358L14.274 38.718L13.89 38.468L13.07 37.922C10.846 36.4167 8.77413 34.6978 6.884 32.79C3.352 29.178 0 24.148 0 18C0 13.2261 1.89642 8.64773 5.27208 5.27208C8.64773 1.89642 13.2261 0 18 0ZM18 4C14.287 4 10.726 5.475 8.1005 8.1005C5.475 10.726 4 14.287 4 18C4 22.644 6.544 26.72 9.742 29.992C11.1172 31.3838 12.6035 32.6613 14.186 33.812L15.102 34.464C15.398 34.67 15.682 34.862 15.956 35.04L16.736 35.54L17.422 35.958L18 36.296L18.91 35.758L19.644 35.298C20.034 35.05 20.454 34.772 20.898 34.464L21.814 33.812C23.3965 32.6613 24.8828 31.3838 26.258 29.992C29.456 26.722 32 22.644 32 18C32 14.287 30.525 10.726 27.8995 8.1005C25.274 5.475 21.713 4 18 4ZM18 10C20.1217 10 22.1566 10.8429 23.6569 12.3431C25.1571 13.8434 26 15.8783 26 18C26 20.1217 25.1571 22.1566 23.6569 23.6569C22.1566 25.1571 20.1217 26 18 26C15.8783 26 13.8434 25.1571 12.3431 23.6569C10.8429 22.1566 10 20.1217 10 18C10 15.8783 10.8429 13.8434 12.3431 12.3431C13.8434 10.8429 15.8783 10 18 10ZM18 14C16.9391 14 15.9217 14.4214 15.1716 15.1716C14.4214 15.9217 14 16.9391 14 18C14 19.0609 14.4214 20.0783 15.1716 20.8284C15.9217 21.5786 16.9391 22 18 22C19.0609 22 20.0783 21.5786 20.8284 20.8284C21.5786 20.0783 22 19.0609 22 18C22 16.9391 21.5786 15.9217 20.8284 15.1716C20.0783 14.4214 19.0609 14 18 14Z" fill="#68368C"/>
</svg>
