<svg width="60" height="59" viewBox="0 0 60 59" fill="none" xmlns="http://www.w3.org/2000/svg">
<path d="M30 0.233521C23.9633 0.233521 19.0179 5.17897 19.0179 11.2157C19.0179 14.6726 20.6415 17.7696 23.1613 19.7871H12.8571L0 58.3585H60L47.1429 19.7871H36.8387C39.3585 17.7696 40.9821 14.6726 40.9821 11.2157C40.9821 5.17897 36.0367 0.233521 30 0.233521ZM30 5.05495C33.431 5.05495 36.1607 7.78468 36.1607 11.2157C36.1607 14.6466 33.431 17.3764 30 17.3764C26.569 17.3764 23.8393 14.6466 23.8393 11.2157C23.8393 7.78468 26.569 5.05495 30 5.05495ZM18.9891 32.2358H22.1364V36.6906L26.6729 32.2356H30.3269L24.4497 38.0146L30.9319 44.4397H26.992L22.1364 39.6333V44.4397H18.9891V32.2358ZM35.0517 35.0804C35.6892 35.0804 36.2506 35.2055 36.7355 35.4562C37.2204 35.7069 37.6647 36.1017 38.0681 36.6415V35.2848H41.0108V43.5163C41.0108 44.9876 40.5447 46.1102 39.6129 46.8841C38.6865 47.6635 37.3404 48.0528 35.5746 48.0528C35.0025 48.0528 34.4496 48.0093 33.9153 47.9221C33.3686 47.8319 32.8301 47.698 32.3049 47.5217V45.2409C32.8173 45.5353 33.3187 45.7533 33.8089 45.895C34.2996 46.042 34.7929 46.1157 35.2888 46.1157C36.248 46.1157 36.9509 45.906 37.3977 45.4862C37.8446 45.0668 38.0681 44.4101 38.0681 43.5164V42.887C37.665 43.4208 37.2206 43.8132 36.7355 44.0639C36.2507 44.3144 35.6892 44.44 35.0517 44.44C33.9343 44.44 33.0108 44.0014 32.2807 43.124C31.5504 42.2412 31.1851 41.1186 31.1851 39.7562C31.1851 38.3883 31.5504 37.2684 32.2807 36.3965C33.0108 35.5193 33.9343 35.0804 35.0517 35.0804ZM36.1389 37.1892C35.5339 37.1892 35.0624 37.4129 34.7246 37.8595C34.3867 38.3066 34.2178 38.9387 34.2178 39.7562C34.2178 40.5954 34.3812 41.2329 34.7083 41.6687C35.0353 42.0993 35.5122 42.3147 36.1389 42.3147C36.7492 42.3147 37.2232 42.091 37.5612 41.6442C37.899 41.1973 38.068 40.568 38.068 39.7561C38.068 38.9386 37.899 38.3065 37.5611 37.8597C37.2232 37.4128 36.7492 37.1892 36.1387 37.1892H36.1389Z" fill="white"/>
</svg>
