<svg width="126" height="56" viewBox="0 0 126 56" fill="none" xmlns="http://www.w3.org/2000/svg">
<path fill-rule="evenodd" clip-rule="evenodd" d="M48.7251 48.9543H54.0706C52.2152 49.1743 50.3952 49.1722 48.7251 48.9543Z" fill="white"/>
<path d="M4 28.4251L34.3055 13.272C38.7047 11.0724 46.5255 8.13993 50.9246 8.13993M4 28.4251C4 28.4251 24.5295 40.4006 48.7251 48.9543M4 28.4251H23.3075M50.9246 8.13993L103.226 7.65107M50.9246 8.13993C37.4827 8.13993 18.4196 35.9283 48.7251 48.9543M50.9246 8.13993C59.4786 8.17994 62.0651 9.73071 65.833 12.05M103.226 7.65107C103.226 1.05279 113.491 0.8137 113.491 7.65107C113.491 14.4884 103.715 14.4942 103.226 7.65107ZM48.7251 48.9543C50.3952 49.1722 52.2152 49.1743 54.0706 48.9543M48.7251 48.9543C50.4077 48.9543 52.1978 48.9542 54.0706 48.9543M48.7251 48.9543H54.0706M114.468 48.9546C114.468 43.5781 124.179 41.8782 123.756 49.9322C123.511 54.5758 114.468 56.0422 114.468 48.9546ZM114.468 48.9546C114.468 48.9546 77.6937 48.9543 54.0706 48.9543M70.9654 18.1599C74.1426 22.5591 76.5866 32.5795 70.9654 38.6895M70.9654 18.1599C64.3666 22.8035 60.7006 31.6019 70.9654 38.6895M70.9654 18.1599C70.2134 16.2048 68.299 13.5678 65.833 12.05M70.9654 38.6895C69.9269 39.8183 69.6516 40.1868 69.455 40.4499C69.1409 40.8704 69.0277 41.0219 66.3218 43.5775M66.3218 43.5775C56.3014 39.9115 51.6578 21.5815 65.833 12.05M66.3218 43.5775C63.0478 46.6696 58.4599 48.4336 54.0706 48.9543M80.4969 16.2051C80.851 17.3924 81.9746 19.7311 82.3039 21.5815M80.0081 40.4006C80.7415 38.8477 82.0204 37.0995 82.3039 35.2682M82.3039 21.5815H114.224M82.3039 21.5815C82.9783 25.3716 82.9767 30.9213 82.3039 35.2682M114.224 21.5815C114.224 15.4706 124 15.715 124 21.3362C124 27.935 114.224 27.935 114.224 21.5815ZM82.3039 35.2682H102.317M102.317 35.2682C102.317 29.1582 112.513 27.9365 112.513 35.2682C112.513 40.8894 102.982 42.1114 102.317 35.2682Z" stroke="white" stroke-width="3.42159"/>
</svg>
