<svg width="70" height="70" viewBox="0 0 70 70" fill="none" xmlns="http://www.w3.org/2000/svg">
<path d="M23.4555 0V3.49846H18.6973L17.0749 22.9681H19.8224L20.4394 15.5627L26.4076 19.3824L19.9085 22.9681H21.326V26.4273L26.401 29.0465L21.326 31.0765V32.703H24.6316L30.444 30.378L30.6377 32.703H33.3852L30.9515 3.49846H26.1934V0H23.4555ZM21.342 6.23638H28.4321L28.5831 8.04645L21.342 6.23638ZM52.66 8.36587V18.1007H55.1635L67.2621 14.0677V51.1079H70V8.36587H52.66ZM20.9888 8.97019L26.6588 10.3878L20.6105 13.5095L20.9888 8.97019ZM45.6631 11.1038V18.1007H50.2263V11.1038H45.6631ZM58.5502 11.1038H67.2622V11.182L61.5324 13.0918L58.5502 11.1038ZM55.3979 12.2927L58.2415 14.1884L55.3979 15.1364V12.2927ZM28.937 12.293L29.4173 18.0578L24.2163 14.7294L28.937 12.293ZM29.6395 20.7264L30.2414 27.9475L23.1681 24.2969L29.6395 20.7264ZM43.2294 20.8386V27.8355H59.9611V20.8386H43.2294ZM6.72373 25.706V32.703H18.5881V25.706H6.72373ZM9.00533 27.8355H13.8727V30.5735H9.00533V27.8355ZM48.0968 30.5735V32.703H55.0937V30.5735H48.0968ZM1.85631 35.4409V42.4378H62.3948V35.4409H1.85631ZM2.23658 45.1757L8.85322 53.9979V49.4347L5.65898 45.1757H2.23658ZM11.5911 45.1757V64.4288C11.1196 64.3737 10.6599 64.3412 10.2222 64.3412C8.21772 64.3412 5.77048 64.993 3.70471 65.6166C1.63895 66.2402 0 66.8646 0 66.8646L0.974548 69.4231C0.974548 69.4231 2.5306 68.8308 4.49612 68.2374C6.46165 67.6442 8.88167 67.0791 10.2222 67.0791C11.5625 67.0791 13.9826 67.6442 15.9481 68.2374C17.9136 68.8306 19.4697 69.4231 19.4697 69.4231L19.957 69.6086L20.4442 69.4231C20.4442 69.4231 22.0003 68.8308 23.9658 68.2374C25.9313 67.6442 28.3513 67.0791 29.6919 67.0791C31.0322 67.0791 33.4522 67.6442 35.4178 68.2374C37.3833 68.8306 38.9393 69.4231 38.9393 69.4231L39.4267 69.6086L39.9139 69.4231C39.9139 69.4231 41.4699 68.8308 43.4355 68.2374C45.401 67.6442 47.821 67.0791 49.1615 67.0791C50.5019 67.0791 52.9219 67.6442 54.8874 68.2374C56.853 68.8306 58.409 69.4231 58.409 69.4231L58.811 69.5764L68.9632 67.038L68.299 64.3822L58.9694 66.7146C58.4968 66.5394 57.3478 66.1204 55.6788 65.6164C53.9667 65.0997 51.9933 64.5646 50.2263 64.3961V45.1757H45.6631V64.8056C44.6295 65.0383 43.5962 65.3291 42.6441 65.6166C41.0453 66.0992 39.9521 66.4942 39.4267 66.6882C38.9012 66.4944 37.8081 66.0992 36.2092 65.6166C34.1436 64.993 31.6962 64.3412 29.6919 64.3412C28.6113 64.3412 27.402 64.5333 26.1934 64.8056V45.1757H23.4555V65.5334C23.3622 65.5611 23.2661 65.5889 23.1744 65.6166C21.5756 66.0992 20.4824 66.4942 19.957 66.6882C19.4315 66.4944 18.3385 66.0992 16.7395 65.6166C16.5485 65.5588 16.3512 65.5013 16.1544 65.4436V45.1757H11.5911ZM36.3085 45.1757L42.9251 53.9979V49.4347L39.7309 45.1757H36.3085ZM56.1584 45.1757L52.9642 49.4347V53.9979L59.5808 45.1757H56.1584Z" fill="white"/>
</svg>
