<svg width="50" height="60" viewBox="0 0 50 60" fill="none" xmlns="http://www.w3.org/2000/svg">
<path d="M0 24.9829C0 21.6041 0.648466 18.3618 1.97952 15.256C3.31058 12.1502 5.08532 9.52219 7.33788 7.30376C9.59044 5.08533 12.2526 3.31058 15.3242 1.97952C18.3959 0.648464 21.6382 0 25.0171 0C28.3959 0 31.6382 0.648464 34.744 1.97952C37.8157 3.31058 40.4778 5.08533 42.6962 7.30376C44.9147 9.52219 46.6894 12.1843 48.0205 15.256C49.3515 18.3276 50 21.57 50 24.9829C50 30.5119 48.3618 35.4266 45.0853 39.7952C41.9266 44.043 37.4884 47.1652 32.4232 48.7031V59.9317H17.9522V48.8396C12.6962 47.3038 8.36177 44.3345 5.01706 39.9317C1.67235 35.529 0 30.5461 0 24.9829ZM5.49488 24.9829C5.49488 30.273 7.40614 34.8123 11.2628 38.6007C15.0512 42.4232 19.6246 44.3345 24.9829 44.3345C28.4983 44.3345 31.7747 43.4812 34.744 41.7406C37.6931 40.0427 40.151 37.6084 41.8771 34.6758C43.6177 31.7065 44.5051 28.4642 44.5051 24.9488C44.5051 22.3208 43.9932 19.8293 42.9693 17.4061C41.9454 14.9829 40.5461 12.9352 38.8055 11.1945C37.0648 9.45392 34.9829 8.05461 32.5597 7.03072C30.1757 6.01254 27.6094 5.49 25.0171 5.49488C22.3891 5.49488 19.8976 6.00683 17.4744 7.03072C12.784 8.98715 9.05542 12.7158 7.09898 17.4061C6.00683 19.8635 5.49488 22.3549 5.49488 24.9829ZM7.4744 26.2116V23.7543H14.8805V26.2116H7.4744ZM11.1945 14.1297L12.9693 12.3549L18.157 17.5427L16.3823 19.3515L11.1945 14.1297ZM19.8294 30.9556C19.8294 29.5222 20.3413 28.2935 21.3311 27.2355C22.3208 26.1775 23.5495 25.6314 24.9488 25.5973L34.2662 10.273L36.5188 11.4676L29.6246 27.9522C30.2389 28.8055 30.5119 29.7952 30.5119 30.9556C30.5119 32.4573 30 33.7201 28.942 34.744C27.884 35.7679 26.6212 36.2799 25.1195 36.2799C23.6519 36.2799 22.3891 35.7679 21.3652 34.744C20.3413 33.7201 19.8294 32.4573 19.8294 30.9556ZM24.3003 15.0171V7.64505H26.6553V15.0512H24.3003V15.0171ZM34.3345 26.1775V23.6519H41.7406V26.1775H34.3345Z" fill="white"/>
</svg>
