<svg width="60" height="61" viewBox="0 0 60 61" fill="none" xmlns="http://www.w3.org/2000/svg">
<path d="M60 33.9055V57.9055H54V51.9055H43.74C41.43 57.1855 36.15 60.9055 30 60.9055C23.85 60.9055 18.57 57.1855 16.26 51.9055H6V57.9055H0V33.9055H6V39.9055H16.29C17.79 36.4555 20.55 33.6955 24 32.1655V27.9055H18V21.9055H42V27.9055H36V32.1655C39.45 33.6955 42.21 36.4555 43.71 39.9055H54V33.9055H60ZM45 0.905518H15C13.35 0.905518 12 2.25552 12 3.90552C12 5.55552 13.35 6.90552 15 6.90552H24V9.90552H27V18.9055H33V9.90552H36V6.90552H45C46.65 6.90552 48 5.55552 48 3.90552C48 2.25552 46.65 0.905518 45 0.905518Z" fill="white"/>
</svg>
