<svg width="74" height="51" viewBox="0 0 74 51" fill="none" xmlns="http://www.w3.org/2000/svg">
<path d="M62.436 28.4803C69.1512 26.8524 70.9826 28.8873 72 32.3466V49.2338C72 49.4595 71.8163 49.6421 71.5907 49.6407L62.436 49.5875M62.436 28.4803V49.5875M62.436 28.4803V22.1722M62.436 49.5875L2.40461 49.2385C2.18077 49.2372 2 49.0554 2 48.8315V22.7827M2 22.7827V16.0676C3.13551 12.3772 5.60141 9.47262 8.9186 7.27517M2 22.7827C3.1531 20.9513 7.08721 16.678 8.10465 16.678M8.9186 7.27517C11.3154 5.68741 14.1567 4.4688 17.2616 3.58963M8.9186 7.27517L8.9761 11.7943M17.2616 3.58963C34.5023 -1.29207 59.8735 4.29155 62.436 15.2536V22.1722M17.2616 3.58963V8.13152M8.9761 11.7943L17.2616 8.13152M8.9761 11.7943L9.03823 17.492M17.2616 8.13152V12.4048M17.2616 13.8292L9.03823 17.492M17.2616 13.8292V19.1199M17.2616 13.8292V12.4048M9.03823 17.492L9.10805 23.1897M17.2616 19.1199L9.10805 23.1897M17.2616 19.1199V24.6141M9.10805 23.1897L9.17964 28.4803M9.17964 28.4803L17.2616 24.6141M9.17964 28.4803L9.25261 33.8728M17.2616 24.6141V30.8205M17.2616 30.8205V36.7188C17.2616 36.901 17.1405 37.061 16.9651 37.1105L9.83583 39.1213C9.57834 39.194 9.32203 39.0026 9.31841 38.7351L9.25261 33.8728M17.2616 30.8205L9.25261 33.8728M17.2616 12.4048C43.3081 6.50361 57.7558 14.8466 62.436 22.1722M31.3023 20.7478C36.1182 25.0889 40.8663 36.2006 32.1163 39.2652C26.0116 40.8808 18.4826 31.7362 31.3023 20.7478Z" stroke="white" stroke-width="2.44186"/>
</svg>
