<svg width="36" height="79" viewBox="0 0 36 79" fill="none" xmlns="http://www.w3.org/2000/svg">
<path d="M18.0001 0.716553L1.68889 8.87215H5.59678V20.9356H0.159714V29.4311H5.41753L0.900514 70.0806L0.789564 70.1616L0.878257 70.284L0.168889 76.6667L0 78.1866L3.03966 78.5247L3.20872 77.0047L3.66152 72.9276H32.3386L32.7915 77.0044L32.9603 78.5242L36 78.1861L35.8309 76.6664L35.1217 70.2835L35.2106 70.1611L35.0995 70.0803L30.5825 29.4311H35.8405V20.9356H30.4034V8.87215H34.3113L18.0001 0.716553ZM9.84449 11.5907H15.2816V19.7463H9.84449V11.5907ZM20.7186 11.5907H26.1557V19.7463H20.7186V11.5907ZM3.21806 23.994H5.59678V26.3727H3.21806V23.994ZM8.65513 23.994H11.0338V26.3727H8.65513V23.994ZM14.0922 23.994H16.4709V26.3727H14.0922V23.994ZM19.5293 23.994H21.908V26.3727H19.5293V23.994ZM24.9663 23.994H27.345V26.3727H24.9663V23.994ZM30.4034 23.994H32.7821V26.3727H30.4034V23.994ZM11.148 29.4311H24.8521L18.0001 35.5219L11.148 29.4311ZM8.31905 31.0083L15.3376 37.2468H7.62634L8.31956 31.0083H8.31905ZM27.6809 31.0083L28.3742 37.2468H20.6629L27.6809 31.0083ZM7.28652 40.3052H12.6188L6.7022 45.5644L7.28652 40.3052ZM17.2222 40.3052H18.7779L27.5707 48.121H8.42949L17.2222 40.3052ZM23.3814 40.3052H28.7137L29.2981 45.5644L23.3811 40.3052H23.3814ZM9.11014 51.1793H26.89L18.0001 57.6448L9.11014 51.1793ZM5.91587 52.6381L14.6568 58.9951H5.2099L5.91621 52.6381H5.91587ZM30.0841 52.6381L30.7904 58.9951H21.3435L30.0843 52.6381H30.0841ZM4.87025 62.0534H11.9384L4.24839 67.6458L4.87025 62.0534ZM17.1385 62.0534H18.862L29.6087 69.8692H6.39161L17.1383 62.0534H17.1385ZM24.0622 62.0534H31.1304L31.752 67.6458L24.0622 62.0534Z" fill="white"/>
</svg>
