<svg width="70" height="73" viewBox="0 0 70 73" fill="none" xmlns="http://www.w3.org/2000/svg">
<path d="M45.7538 0.62207L43.6062 3.89422C49.4803 7.71653 54.0177 12.9748 58.5105 22.8447L61.0994 19.0282C60.3063 16.3508 59.4377 13.5113 58.6378 11.1281C57.7768 8.56161 56.8628 6.37946 56.6217 6.0213C56.4186 5.71976 54.9682 4.56715 52.8478 3.50745C50.9578 2.56284 48.4983 1.56053 45.754 0.622224L45.7538 0.62207ZM47.0354 10.0882L38.6569 16.7027C40.3125 17.6527 41.5031 19.3307 41.7822 21.2916L50.6283 14.3076C49.4711 12.6939 48.284 11.3099 47.0354 10.0882ZM35.5385 18.6387C33.5677 18.6387 32 20.2064 32 22.1771C32 24.1478 33.5677 25.7156 35.5385 25.7156C37.5092 25.7156 39.0769 24.1478 39.0769 22.1771C39.0769 20.2064 37.5092 18.6387 35.5385 18.6387ZM29.4858 23.9427L9.07539 40.0564C10.8966 40.7748 12.2148 42.5199 12.3023 44.565L33.2308 28.0425C31.4345 27.3295 30.036 25.813 29.4858 23.9427ZM56.3077 24.627V56.9356H59.0769V26.9424L57.9874 28.5485L56.9946 26.2071C56.77 25.6786 56.541 25.1518 56.3077 24.627ZM42.0558 24.7105L39.6226 26.5942L40.2062 29.3658L37.9714 27.8724L35.6622 29.6602L40.0923 32.6207L29.1223 37.6718L29.8638 34.1491L26.4829 36.7667L22.7362 54.5633L22.6685 54.5933L22.7103 54.6871L19.6457 69.2433H17.2308V72.0125H51.3846V69.0219L42.0558 24.7105ZM41.4057 35.0644L43.2549 43.8471L31.0923 39.8136L41.4057 35.0644ZM28.2554 41.7901L41.5526 46.2002L25.8585 53.1753L28.2554 41.7901ZM7.23077 42.4742C5.94 42.4742 4.92308 43.491 4.92308 44.7819C4.92308 46.0727 5.94 47.0896 7.23077 47.0896C8.52154 47.0896 9.53846 46.0727 9.53846 44.7819C9.53846 43.491 8.52154 42.4742 7.23077 42.4742ZM44.1454 48.0784L46.4459 59.0058L29.2223 54.711L44.1454 48.0784ZM10.4802 48.671C9.77323 49.2635 8.90477 49.6681 7.954 49.8059L11.2257 56.9358H14.2725L10.4802 48.671ZM3.98292 48.6722L0.189077 56.9358H3.23646L6.50969 49.8062C5.55877 49.6688 4.69 49.2645 3.98292 48.6722ZM25.1482 56.5491L43.1145 61.0288L22.6374 68.4755L25.1482 56.5491ZM0 59.7047V69.2431H14.4615V59.7047H0ZM54.1538 59.7047V62.1662H61.2308V59.7047H54.1538ZM47.1809 62.497L48.6012 69.2431H28.6289L47.1809 62.497ZM54.1538 64.9355V69.2431H61.2308V64.9355H54.1538ZM64 69.2431V72.0124H70V69.2431H64Z" fill="white"/>
</svg>
