<svg width="54" height="71" viewBox="0 0 54 71" fill="none" xmlns="http://www.w3.org/2000/svg">
<path d="M32.6643 60.2807H34.7223C34.7981 60.2807 34.8595 60.3421 34.8595 60.4179V65.1512C34.8595 65.227 34.7981 65.2884 34.7223 65.2884H18.9445C18.8688 65.2884 18.8073 65.227 18.8073 65.1512V60.4179C18.8073 60.3421 18.8688 60.2807 18.9445 60.2807H21.2769M32.6643 60.2807V56.2334C32.6643 56.1576 32.6029 56.0962 32.5271 56.0962H30.6744M32.6643 60.2807H21.2769M21.2769 60.2807V56.2334C21.2769 56.1576 21.3383 56.0962 21.4141 56.0962H23.5406M23.5406 56.0962H30.4005H30.6744M23.5406 56.0962V51.404M26.8338 6.08644V10.4082M26.8338 6.08644C29.9073 6.08644 32.569 6.64238 34.8599 7.59018M26.8338 6.08644C24.5753 6.08644 21.8536 6.62146 19.1508 7.77021M27.2444 23.3734C22.9913 23.3734 21.9623 29.4101 26.6281 30.3019C29.0966 30.3019 30.6744 28.4497 30.6744 26.4603M27.2444 23.3734L36.0357 17.427C36.1586 17.3439 36.3077 17.4879 36.2288 17.6136L30.6744 26.4603M27.2444 23.3734C28.685 23.3734 30.6744 24.128 30.6744 26.4603M34.8599 7.59018L32.6648 11.7116M34.8599 7.59018C37.5389 8.69851 39.7107 10.3427 41.4409 12.2604M41.4409 12.2604L38.1527 15.2787M41.4409 12.2604C43.2969 14.3174 44.9144 16.5519 45.8347 18.9145M45.8347 18.9145L41.857 20.9724M45.8347 18.9145C46.8592 21.5442 47.5497 23.099 47.5497 26.8719M47.5497 26.8719H42.8164M47.5497 26.8719C47.5497 28.3811 47.2701 31.0565 45.9033 34.4178M45.9033 34.4178L41.857 32.3598M45.9033 34.4178C45.4292 35.584 44.6 37.8478 41.2386 41.3463M41.2386 41.3463C36.7797 45.5995 32.6648 47.1086 27.3826 47.1086C20.3767 47.2621 15.5136 44.6263 12.2723 41.1405M41.2386 41.3463L38.1527 38.1222M12.2723 41.1405L15.515 38.1222M12.2723 41.1405C10.3418 39.0645 8.9866 36.6871 8.09667 34.4178M8.09667 34.4178C7.27373 32.3194 6.84861 30.3135 6.73427 28.7241C6.67839 27.9472 6.6561 27.1927 6.66517 26.4603M8.09667 34.4178L11.8793 32.3598M6.66517 26.4603H10.9189M6.66517 26.4603C6.70092 23.5748 7.22352 21.0318 8.09667 18.8091M8.09667 18.8091L11.8793 20.9724M8.09667 18.8091C9.12347 16.1953 10.6351 14.0245 12.4098 12.2604M12.4098 12.2604L15.515 15.2787M12.4098 12.2604C14.4256 10.2565 16.7809 8.77742 19.1508 7.77021M19.1508 7.77021L21.1401 11.7116M30.6744 51.487C29.6124 51.6299 28.5148 51.7048 27.3826 51.7048C26.385 51.7048 25.0654 51.6349 23.5406 51.404M30.6744 51.487C44.9254 49.5701 52.7699 35.4156 51.9402 25.7743C51.0487 15.4147 43.2279 2.52044 27.2444 2.03916C16.0491 1.32487 2 10.4083 2 27.2149C2 28.7926 2.34834 36.956 8.0967 43.2671C13.0897 48.7488 19.1611 50.7408 23.5406 51.404M30.6744 51.487V56.0962M21.2769 65.2884V69.6788C21.2769 69.7545 21.3383 69.816 21.4141 69.816H32.5271C32.6029 69.816 32.6643 69.7545 32.6643 69.6788V65.2884H21.2769ZM33.5565 34.555V39.0826C33.5565 39.1583 33.4951 39.2198 33.4193 39.2198H20.3169C20.2412 39.2198 20.1797 39.1583 20.1797 39.0826V34.555C20.1797 34.4792 20.2412 34.4178 20.3169 34.4178H33.4193C33.4951 34.4178 33.5565 34.4792 33.5565 34.555Z" stroke="white" stroke-width="2.19517"/>
</svg>
