<svg width="24" height="25" viewBox="0 0 24 25" fill="none" xmlns="http://www.w3.org/2000/svg">
<path fill-rule="evenodd" clip-rule="evenodd" d="M17.6551 24.3265C15.9242 24.2627 11.0187 23.5848 5.88123 18.4485C0.74495 13.311 0.0682057 8.40674 0.00329597 6.67462C-0.0928666 4.03496 1.92895 1.47102 4.2645 0.469729C4.54575 0.348284 4.85374 0.302046 5.15825 0.335553C5.46276 0.369059 5.75332 0.481159 6.00143 0.660852C7.92469 2.06242 9.25173 4.18281 10.3913 5.85002C10.642 6.21632 10.7492 6.66205 10.6924 7.1023C10.6357 7.54254 10.419 7.94652 10.0835 8.23726L7.73837 9.979C7.62507 10.0608 7.54532 10.181 7.51392 10.3172C7.48253 10.4533 7.50163 10.5963 7.56768 10.7195C8.09898 11.6847 9.04378 13.1223 10.1256 14.2041C11.2086 15.286 12.7136 16.2933 13.7461 16.8847C13.8756 16.9573 14.028 16.9777 14.172 16.9414C14.3159 16.9052 14.4406 16.8152 14.5202 16.6899L16.0468 14.3664C16.3275 13.9936 16.7415 13.7438 17.2022 13.6695C17.6629 13.5951 18.1345 13.7018 18.5182 13.9673C20.2095 15.1381 22.1832 16.4423 23.628 18.2923C23.8223 18.5422 23.9459 18.8397 23.9859 19.1537C24.0258 19.4677 23.9807 19.7867 23.8552 20.0773C22.8491 22.4248 20.3032 24.4238 17.6551 24.3265Z" fill="#444444"/>
</svg>
