<svg width="74" height="75" viewBox="0 0 74 75" fill="none" xmlns="http://www.w3.org/2000/svg">
<path d="M15.5984 66.5159C33.6221 48.9959 30.9903 57.877 39.127 51.196C47.8698 44.0174 64.2296 25.8501 70.3683 19.1126C76.5069 12.3751 64.1922 -5.71202 52.2812 5.67763C40.3703 17.0673 25.4515 30.5022 22.1629 37.9616C19.3479 44.3468 15.4457 51.114 7.96598 59.0681M15.5984 66.5159C14.256 67.8208 12.799 69.2721 11.2144 70.8872C5.31909 75.9404 -1.32215 69.4113 3.87537 63.1871C5.34806 61.778 6.70765 60.4062 7.96598 59.0681M15.5984 66.5159L7.96598 59.0681M60.5828 13.8189C58.1364 11.0918 62.3474 6.81426 65.1146 9.28707C68.2828 12.1183 63.0292 16.5459 60.5828 13.8189ZM60.4706 22.0874L52.3935 13.9322C52.3314 13.8695 52.2303 13.8688 52.1673 13.9305L36.3138 29.4677C36.2506 29.5297 36.2495 29.6311 36.3113 29.6944L44.5077 38.086C44.5702 38.15 44.6729 38.1505 44.7361 38.0872L60.4702 22.3135C60.5325 22.2511 60.5327 22.15 60.4706 22.0874Z" stroke="white" stroke-width="3.20834"/>
</svg>
