<svg width="51" height="64" viewBox="0 0 51 64" fill="none" xmlns="http://www.w3.org/2000/svg">
<path fill-rule="evenodd" clip-rule="evenodd" d="M30.9248 60.9491V59.6003H32.5264C32.6196 59.6003 32.695 59.5249 32.695 59.4318V43.247C32.695 43.1539 32.6196 43.0784 32.5264 43.0784H30.9248V38.0207C53.1788 28.4099 45.9294 0.255353 25.1928 1.01508C2.73655 1.01508 -1.52894 32.5404 19.9664 38.0207V43.0784H18.6176C18.5245 43.0784 18.449 43.1539 18.449 43.247V59.4318C18.449 59.5249 18.5245 59.6003 18.6176 59.6003H19.9664V60.9491C19.9664 61.0422 20.0418 61.1177 20.135 61.1177H30.7562C30.8494 61.1177 30.9248 61.0422 30.9248 60.9491ZM6.90067 39.0323V43.0784H1.16859C1.07548 43.0784 1 43.1539 1 43.247V59.4318C1 59.5249 1.07548 59.6003 1.16859 59.6003H6.90067V62.2978C6.90067 62.3909 6.97615 62.4664 7.06926 62.4664H11.9584C12.0515 62.4664 12.127 62.3909 12.127 62.2978V59.6003H14.7401C14.8332 59.6003 14.9087 59.5249 14.9087 59.4318V43.247C14.9087 43.1539 14.8332 43.0784 14.7401 43.0784H12.4642V39.0323C12.4642 38.9392 12.3887 38.8637 12.2956 38.8637H7.06926C6.97615 38.8637 6.90067 38.9392 6.90067 39.0323ZM49.6384 59.6003H44.4121V62.8036C44.4121 62.9898 44.2611 63.1407 44.0749 63.1407H39.4387C39.2524 63.1407 39.1015 62.9898 39.1015 62.8036V58.926H36.5726C36.3864 58.926 36.2354 58.775 36.2354 58.5888V42.7413C36.2354 42.555 36.3864 42.4041 36.5726 42.4041H39.1015V39.9595C39.1015 39.7733 39.2524 39.6223 39.4387 39.6223H44.0749C44.2611 39.6223 44.4121 39.7733 44.4121 39.9595V43.0784H49.6384C49.8246 43.0784 49.9756 43.2294 49.9756 43.4156V59.2632C49.9756 59.4494 49.8246 59.6003 49.6384 59.6003ZM25.277 32.6245C32.4931 32.6245 38.3428 26.7747 38.3428 19.5587C38.3428 12.3427 32.4931 6.49294 25.277 6.49294C18.061 6.49294 12.2113 12.3427 12.2113 19.5587C12.2113 26.7747 18.061 32.6245 25.277 32.6245Z" fill="white"/>
<path d="M30.9248 59.6003V58.7574H30.0819V59.6003H30.9248ZM30.9248 43.0784H30.0819V43.9214H30.9248V43.0784ZM30.9248 38.0207L30.5906 37.2469L30.0819 37.4666V38.0207H30.9248ZM25.1928 1.01508V1.85803H25.2082L25.2236 1.85747L25.1928 1.01508ZM19.9664 38.0207H20.8093V37.3657L20.1746 37.2039L19.9664 38.0207ZM19.9664 43.0784V43.9214H20.8093V43.0784H19.9664ZM19.9664 59.6003H20.8093V58.7574H19.9664V59.6003ZM6.90067 43.0784V43.9214H7.74363V43.0784H6.90067ZM6.90067 59.6003H7.74363V58.7574H6.90067V59.6003ZM12.127 59.6003V58.7574H11.284V59.6003H12.127ZM12.4642 43.0784H11.6212V43.9214H12.4642V43.0784ZM44.4121 59.6003V58.7574H43.5691V59.6003H44.4121ZM39.1015 58.926H39.9444V58.083H39.1015V58.926ZM39.1015 42.4041V43.247H39.9444V42.4041H39.1015ZM44.4121 43.0784H43.5691V43.9214H44.4121V43.0784ZM30.0819 59.6003V60.9491H31.7678V59.6003H30.0819ZM32.5264 58.7574H30.9248V60.4433H32.5264V58.7574ZM31.8521 59.4318C31.8521 59.0593 32.154 58.7574 32.5264 58.7574V60.4433C33.0851 60.4433 33.538 59.9904 33.538 59.4318H31.8521ZM31.8521 43.247V59.4318H33.538V43.247H31.8521ZM32.5264 43.9214C32.154 43.9214 31.8521 43.6195 31.8521 43.247H33.538C33.538 42.6884 33.0851 42.2355 32.5264 42.2355V43.9214ZM30.9248 43.9214H32.5264V42.2355H30.9248V43.9214ZM30.0819 38.0207V43.0784H31.7678V38.0207H30.0819ZM25.2236 1.85747C35.147 1.49391 41.8054 8.02265 43.3536 15.7937C44.8965 23.5384 41.3626 32.5948 30.5906 37.2469L31.259 38.7946C42.7411 33.8359 46.7094 24.0096 45.007 15.4643C43.3098 6.9452 35.9751 -0.223472 25.1619 0.172693L25.2236 1.85747ZM20.1746 37.2039C9.90572 34.5858 5.79574 25.7874 6.93272 17.5784C8.06982 9.36863 14.4437 1.85803 25.1928 1.85803V0.172128C13.4856 0.172128 6.49863 8.42422 5.26276 17.3471C4.02677 26.2709 8.5317 35.9753 19.7581 38.8376L20.1746 37.2039ZM20.8093 43.0784V38.0207H19.1234V43.0784H20.8093ZM18.6176 43.9214H19.9664V42.2355H18.6176V43.9214ZM19.292 43.247C19.292 43.6195 18.9901 43.9214 18.6176 43.9214V42.2355C18.059 42.2355 17.6061 42.6884 17.6061 43.247H19.292ZM19.292 59.4318V43.247H17.6061V59.4318H19.292ZM18.6176 58.7574C18.9901 58.7574 19.292 59.0593 19.292 59.4318H17.6061C17.6061 59.9904 18.059 60.4433 18.6176 60.4433V58.7574ZM19.9664 58.7574H18.6176V60.4433H19.9664V58.7574ZM20.8093 60.9491V59.6003H19.1234V60.9491H20.8093ZM20.135 60.2747C20.5074 60.2747 20.8093 60.5766 20.8093 60.9491H19.1234C19.1234 61.5077 19.5763 61.9606 20.135 61.9606V60.2747ZM30.7562 60.2747H20.135V61.9606H30.7562V60.2747ZM30.0819 60.9491C30.0819 60.5766 30.3838 60.2747 30.7562 60.2747V61.9606C31.3149 61.9606 31.7678 61.5077 31.7678 60.9491H30.0819ZM7.74363 43.0784V39.0323H6.05772V43.0784H7.74363ZM1.16859 43.9214H6.90067V42.2355H1.16859V43.9214ZM1.84295 43.247C1.84295 43.6195 1.54105 43.9214 1.16859 43.9214V42.2355C0.609916 42.2355 0.157047 42.6884 0.157047 43.247H1.84295ZM1.84295 59.4318V43.247H0.157047V59.4318H1.84295ZM1.16859 58.7574C1.54103 58.7574 1.84295 59.0593 1.84295 59.4318H0.157047C0.157047 59.9904 0.609928 60.4433 1.16859 60.4433V58.7574ZM6.90067 58.7574H1.16859V60.4433H6.90067V58.7574ZM7.74363 62.2978V59.6003H6.05772V62.2978H7.74363ZM7.06926 61.6234C7.44171 61.6234 7.74363 61.9254 7.74363 62.2978H6.05772C6.05772 62.8564 6.5106 63.3093 7.06926 63.3093V61.6234ZM11.9584 61.6234H7.06926V63.3093H11.9584V61.6234ZM11.284 62.2978C11.284 61.9254 11.5859 61.6234 11.9584 61.6234V63.3093C12.5171 63.3093 12.9699 62.8564 12.9699 62.2978H11.284ZM11.284 59.6003V62.2978H12.9699V59.6003H11.284ZM14.7401 58.7574H12.127V60.4433H14.7401V58.7574ZM14.0658 59.4318C14.0658 59.0593 14.3677 58.7574 14.7401 58.7574V60.4433C15.2988 60.4433 15.7517 59.9904 15.7517 59.4318H14.0658ZM14.0658 43.247V59.4318H15.7517V43.247H14.0658ZM14.7401 43.9214C14.3677 43.9214 14.0658 43.6195 14.0658 43.247H15.7517C15.7517 42.6884 15.2988 42.2355 14.7401 42.2355V43.9214ZM12.4642 43.9214H14.7401V42.2355H12.4642V43.9214ZM11.6212 39.0323V43.0784H13.3071V39.0323H11.6212ZM12.2956 39.7066C11.9231 39.7066 11.6212 39.4047 11.6212 39.0323H13.3071C13.3071 38.4736 12.8542 38.0207 12.2956 38.0207V39.7066ZM7.06926 39.7066H12.2956V38.0207H7.06926V39.7066ZM7.74363 39.0323C7.74363 39.4047 7.44171 39.7066 7.06926 39.7066V38.0207C6.5106 38.0207 6.05772 38.4736 6.05772 39.0323H7.74363ZM44.4121 60.4433H49.6384V58.7574H44.4121V60.4433ZM45.255 62.8036V59.6003H43.5691V62.8036H45.255ZM44.0749 63.9837C44.7267 63.9837 45.255 63.4553 45.255 62.8036H43.5691C43.5691 62.5242 43.7956 62.2978 44.0749 62.2978V63.9837ZM39.4387 63.9837H44.0749V62.2978H39.4387V63.9837ZM38.2585 62.8036C38.2585 63.4553 38.7869 63.9837 39.4387 63.9837V62.2978C39.718 62.2978 39.9444 62.5242 39.9444 62.8036H38.2585ZM38.2585 58.926V62.8036H39.9444V58.926H38.2585ZM36.5726 59.7689H39.1015V58.083H36.5726V59.7689ZM35.3925 58.5888C35.3925 59.2406 35.9209 59.7689 36.5726 59.7689V58.083C36.852 58.083 37.0784 58.3095 37.0784 58.5888H35.3925ZM35.3925 42.7413V58.5888H37.0784V42.7413H35.3925ZM36.5726 41.5611C35.9209 41.5611 35.3925 42.0895 35.3925 42.7413H37.0784C37.0784 43.0206 36.852 43.247 36.5726 43.247V41.5611ZM39.1015 41.5611H36.5726V43.247H39.1015V41.5611ZM38.2585 39.9595V42.4041H39.9444V39.9595H38.2585ZM39.4387 38.7794C38.7869 38.7794 38.2585 39.3078 38.2585 39.9595H39.9444C39.9444 40.2388 39.718 40.4653 39.4387 40.4653V38.7794ZM44.0749 38.7794H39.4387V40.4653H44.0749V38.7794ZM45.255 39.9595C45.255 39.3078 44.7267 38.7794 44.0749 38.7794V40.4653C43.7956 40.4653 43.5691 40.2388 43.5691 39.9595H45.255ZM45.255 43.0784V39.9595H43.5691V43.0784H45.255ZM49.6384 42.2355H44.4121V43.9214H49.6384V42.2355ZM50.8185 43.4156C50.8185 42.7639 50.2902 42.2355 49.6384 42.2355V43.9214C49.3591 43.9214 49.1326 43.695 49.1326 43.4156H50.8185ZM50.8185 59.2632V43.4156H49.1326V59.2632H50.8185ZM49.6384 60.4433C50.2902 60.4433 50.8185 59.9149 50.8185 59.2632H49.1326C49.1326 58.9838 49.3591 58.7574 49.6384 58.7574V60.4433ZM37.4999 19.5587C37.4999 26.3092 32.0275 31.7815 25.277 31.7815V33.4674C32.9586 33.4674 39.1858 27.2403 39.1858 19.5587H37.4999ZM25.277 7.33589C32.0275 7.33589 37.4999 12.8082 37.4999 19.5587H39.1858C39.1858 11.8771 32.9586 5.64998 25.277 5.64998V7.33589ZM13.0542 19.5587C13.0542 12.8082 18.5266 7.33589 25.277 7.33589V5.64998C17.5955 5.64998 11.3683 11.8771 11.3683 19.5587H13.0542ZM25.277 31.7815C18.5266 31.7815 13.0542 26.3092 13.0542 19.5587H11.3683C11.3683 27.2403 17.5955 33.4674 25.277 33.4674V31.7815Z" fill="white"/>
<path d="M14.1499 20.6406H23.2538L24.5252 18.2474C24.591 18.1235 24.7704 18.1295 24.8279 18.2575L27.4643 24.1329C27.5266 24.2718 27.7267 24.2634 27.7771 24.1197L30.7465 15.6683C30.8013 15.5126 31.024 15.5202 31.0681 15.6792L32.442 20.6406H36.5725" stroke="white" stroke-width="1.68591" stroke-linecap="round"/>
</svg>
