<svg width="24" height="25" viewBox="0 0 24 25" fill="none" xmlns="http://www.w3.org/2000/svg">
<path d="M20.5025 3.77915C19.3968 2.66228 18.0798 1.77674 16.6283 1.17419C15.1768 0.571634 13.6198 0.264128 12.0482 0.269603C5.46332 0.269603 0.0964826 5.63644 0.0964826 12.2214C0.0964826 14.3319 0.651256 16.3822 1.68844 18.1912L0 24.3902L6.33166 22.7259C8.0804 23.6786 10.0462 24.1852 12.0482 24.1852C18.6332 24.1852 24 18.8183 24 12.2334C24 9.03744 22.7578 6.03443 20.5025 3.77915ZM12.0482 22.159C10.2633 22.159 8.51457 21.6766 6.98291 20.7721L6.6211 20.555L2.85829 21.544L3.8593 17.8776L3.61809 17.5038C2.62643 15.9202 2.09987 14.0898 2.09849 12.2214C2.09849 6.74598 6.5608 2.28367 12.0362 2.28367C14.6894 2.28367 17.1859 3.32086 19.0553 5.20227C19.9809 6.12363 20.7144 7.21955 21.2133 8.4265C21.7123 9.63345 21.9667 10.9274 21.9618 12.2334C21.9859 17.7088 17.5236 22.159 12.0482 22.159ZM17.4995 14.7299C17.198 14.5852 15.7266 13.8616 15.4613 13.753C15.1839 13.6565 14.991 13.6083 14.7859 13.8977C14.5809 14.1993 14.0141 14.8746 13.8452 15.0676C13.6764 15.2726 13.4955 15.2967 13.194 15.14C12.8925 14.9952 11.9276 14.6696 10.794 13.6565C9.90151 12.8606 9.31055 11.8837 9.12965 11.5822C8.9608 11.2807 9.10553 11.1239 9.26231 10.9671C9.39497 10.8344 9.56382 10.6173 9.70854 10.4485C9.85327 10.2797 9.91357 10.147 10.01 9.95402C10.1065 9.749 10.0583 9.58016 9.98593 9.43543C9.91357 9.29071 9.31055 7.81935 9.06935 7.21634C8.82814 6.63744 8.57487 6.7098 8.39397 6.69774H7.81507C7.61005 6.69774 7.29648 6.77011 7.01909 7.07161C6.75377 7.37312 5.98191 8.09674 5.98191 9.5681C5.98191 11.0395 7.05528 12.4626 7.2 12.6555C7.34472 12.8606 9.31055 15.8756 12.3015 17.1661C13.0131 17.4797 13.5678 17.6606 14.002 17.7932C14.7136 18.0224 15.3648 17.9862 15.8834 17.9138C16.4623 17.8294 17.6563 17.1902 17.8975 16.4907C18.1508 15.7912 18.1508 15.2003 18.0663 15.0676C17.9819 14.9349 17.801 14.8746 17.4995 14.7299Z" fill="#444444"/>
</svg>
